<?xml version="1.0" encoding="UTF-8"?>
<!DOCTYPE svg PUBLIC "-//W3C//DTD SVG 1.1//EN" "http://www.w3.org/Graphics/SVG/1.1/DTD/svg11.dtd">
<!-- Creator: CorelDRAW 2021 (64-Bit) -->
<svg xmlns="http://www.w3.org/2000/svg" xml:space="preserve" width="304.8mm" height="304.8mm" version="1.1" style="shape-rendering:geometricPrecision; text-rendering:geometricPrecision; image-rendering:optimizeQuality; fill-rule:evenodd; clip-rule:evenodd"
viewBox="0 0 30480 30480"
 xmlns:xlink="http://www.w3.org/1999/xlink"
 xmlns:xodm="http://www.corel.com/coreldraw/odm/2003">
 <defs>
  <style type="text/css">
   <![CDATA[
    .str0 {stroke:black;stroke-width:20;stroke-linecap:round;stroke-linejoin:round;stroke-miterlimit:22.9256}
    .fil1 {fill:#020202}
    .fil2 {fill:dodgerblue}
    .fil0 {fill:white}
   ]]>
  </style>
 </defs>
 <g id="Layer_x0020_1">
  <metadata id="CorelCorpID_0Corel-Layer"/>
  <rect class="fil0 str0" x="-7.57" y="-11.32" width="30568.11" height="30871.97"/>
  <g id="_1738625688672">
   <path class="fil1" d="M8320.3 12862.35c126.64,268.91 276.73,497.81 417.47,765.41 173.39,329.71 1157.82,2134.12 1229.69,2199.11 128.73,-236.69 269.6,-485.21 417.37,-744.08 124.98,-218.96 107.62,-163.47 -13.32,-387.31l-995.16 -1831.32 -1056.05 -1.81z"/>
   <path class="fil1" d="M10643.77 14650.97c145.74,-363.61 1428.16,-2508.43 1507.89,-2750.03l-1049.02 5.1 -753.49 1365.18c-270.25,497.5 -272.88,358.48 -87.29,714.11 64.08,122.76 281.39,589.55 381.91,665.64z"/>
   <path class="fil1" d="M17522.02 14325.83c-180.9,-992.31 872.31,-1198.92 975.58,-448.81 160.69,1167.02 -853.11,1120.55 -975.58,448.81zm971.26 -873.03c-134.39,-95.45 -137.39,-214.89 -408.55,-274.25 -541.48,-118.47 -1020.34,284.92 -1008.2,962.66 13.45,752.27 592.7,1048.3 1062.27,885.51 295.59,-102.49 266.03,-244.11 370.31,-263.94l20.73 256.12 375.09 2.19 0.03 -2643.73 -411.52 42.35 -0.16 1033.09z"/>
   <path class="fil1" d="M12679.15 12503.4c43.91,196.82 607.21,1604.94 727.56,1911.28l179.71 479.3c65.28,167.45 36.97,131.39 452.59,132.95 110.4,-391.03 329.02,-879.06 480.21,-1264.12 78.47,-199.92 455.9,-1128.52 478.33,-1259.88l-284.33 1.16c-78.94,101.93 -581.32,1529.03 -737.48,1904.93 -21.58,51.95 -0.28,7.92 -24.36,54.58 -29.84,57.8 -11.98,25.99 -32.56,50.73 -76,-107.31 -490.9,-1249.15 -603.24,-1544.95 -212.52,-559.52 -69.81,-473.08 -636.43,-465.98z"/>
   <path class="fil1" d="M16254.57 14099.61c-0.5,259.22 38.35,459.29 -137.29,595.77 -112.91,87.76 -392.89,163.07 -531.66,31.09 -150.18,-142.84 -69.65,-400.48 77.44,-484.27 115.41,-65.74 423.22,-114.6 591.51,-142.59zm-729.78 -365.2c65.24,-505.82 638.4,-439.89 713.27,-89.23 109.15,511.01 -295.37,165.1 -870.68,461.28 -142.12,73.16 -268.5,203.39 -283.04,405.71 -47.1,656.13 822.64,709.58 1164.73,262.18 134.2,112.81 76.72,377.87 604.4,232.69l9.17 -178.08c-121.89,-86.32 -210.55,51.57 -209.3,-289.92 1.91,-522.78 77.41,-1003.29 -222.15,-1241.49 -256.99,-204.35 -1176.46,-286.3 -1250.27,425.69l343.87 11.17z"/>
   <path class="fil1" d="M21524.73 15824.77c395.86,63.34 595.24,-113.15 735.45,-358.38 119.72,-209.39 231.91,-534.47 324.73,-759.78 111.09,-269.69 212.96,-514.11 324.52,-763.19 95.89,-214.08 259.11,-545.35 315.57,-746.08l-290.71 2.94 -526.27 1303.04 -540.95 -1302.35 -446.49 1.25c53.83,214.62 187.66,476.99 277.29,681.28 94.83,216.05 184.12,425.03 280.61,645.87 154.09,352.66 244.82,458.66 150.5,668.83 -159.67,355.82 -233.66,290.74 -598.78,326.36l-5.47 300.21z"/>
   <path class="fil1" d="M20901 13198.66c-9.76,-554.21 91.83,-593.89 596.55,-479.21l4.22 -300.18 -194.15 -54.95c-197.88,-17.7 -406.71,23.96 -558.43,158.97 -200.98,178.84 -239.76,325.71 -257.37,672.18l-282.51 10.19 -0.25 236.01 287.42 5.75 7.38 1577.48 398.24 -2.84 -1.85 -1577.39 448.46 -9.38 -6.5 -232.16 -441.21 -4.47z"/>
   <path class="fil0" d="M17522.02 14325.83c122.47,671.74 1136.27,718.21 975.58,-448.81 -103.27,-750.11 -1156.48,-543.5 -975.58,448.81z"/>
   <polygon class="fil1" points="19445.56,15024.4 19850.08,15017.15 19854.18,13204.13 19443.75,13206.82 "/>
   <path class="fil1" d="M9237.8 12626.13c-23.45,-134.24 -296.4,-570.44 -360.7,-719.59l-1064.18 -2c51.2,104.08 788.17,707.36 891.29,720.65 128.17,16.54 387.38,-2.03 533.59,0.94z"/>
   <path class="fil0" d="M16254.57 14099.61c-168.29,27.99 -476.1,76.85 -591.51,142.59 -147.09,83.79 -227.62,341.43 -77.44,484.27 138.77,131.98 418.75,56.67 531.66,-31.09 175.64,-136.48 136.79,-336.55 137.29,-595.77z"/>
   <path class="fil1" d="M19538.73 12449.61c-290.67,152.22 -75.47,574.15 233.19,420.94 255.99,-127.11 69.65,-579.54 -233.19,-420.94z"/>
  </g>
  <g id="_1738625718768">
   <path class="fil0" d="M8081.64 19471.74c126.64,268.91 276.73,497.81 417.47,765.41 173.39,329.71 1157.82,2134.12 1229.69,2199.11 128.73,-236.69 269.6,-485.21 417.37,-744.08 124.98,-218.96 107.62,-163.47 -13.32,-387.31l-995.16 -1831.32 -1056.05 -1.81z"/>
   <path class="fil0" d="M10405.11 21260.36c145.74,-363.61 1428.16,-2508.43 1507.89,-2750.03l-1049.02 5.1 -753.49 1365.18c-270.25,497.5 -272.88,358.48 -87.29,714.11 64.08,122.76 281.39,589.55 381.91,665.64z"/>
   <path class="fil0" d="M17283.36 20935.22c-180.9,-992.31 872.31,-1198.92 975.58,-448.81 160.69,1167.02 -853.11,1120.55 -975.58,448.81zm971.26 -873.03c-134.39,-95.45 -137.39,-214.89 -408.55,-274.25 -541.48,-118.47 -1020.34,284.92 -1008.2,962.66 13.45,752.27 592.7,1048.3 1062.27,885.51 295.59,-102.49 266.03,-244.11 370.31,-263.94l20.73 256.12 375.09 2.19 0.03 -2643.73 -411.52 42.35 -0.16 1033.09z"/>
   <path class="fil0" d="M12440.49 19112.79c43.91,196.82 607.21,1604.94 727.56,1911.28l179.71 479.3c65.28,167.45 36.97,131.39 452.59,132.95 110.4,-391.03 329.02,-879.06 480.21,-1264.12 78.47,-199.92 455.9,-1128.52 478.33,-1259.88l-284.33 1.16c-78.94,101.93 -581.32,1529.03 -737.48,1904.93 -21.58,51.95 -0.28,7.92 -24.36,54.58 -29.84,57.8 -11.98,25.99 -32.56,50.73 -76,-107.31 -490.9,-1249.15 -603.24,-1544.95 -212.52,-559.52 -69.81,-473.08 -636.43,-465.98z"/>
   <path class="fil0" d="M16015.91 20709c-0.5,259.22 38.35,459.29 -137.29,595.77 -112.91,87.76 -392.89,163.07 -531.66,31.09 -150.18,-142.84 -69.65,-400.48 77.44,-484.27 115.41,-65.74 423.22,-114.6 591.51,-142.59zm-729.78 -365.2c65.24,-505.82 638.4,-439.89 713.27,-89.23 109.15,511.01 -295.37,165.1 -870.68,461.28 -142.12,73.16 -268.5,203.39 -283.04,405.71 -47.1,656.13 822.64,709.58 1164.73,262.18 134.2,112.81 76.72,377.87 604.4,232.69l9.17 -178.08c-121.89,-86.32 -210.55,51.57 -209.3,-289.92 1.91,-522.78 77.41,-1003.29 -222.15,-1241.49 -256.99,-204.35 -1176.46,-286.3 -1250.27,425.69l343.87 11.17z"/>
   <path class="fil0" d="M21286.07 22434.16c395.86,63.34 595.24,-113.15 735.45,-358.38 119.72,-209.39 231.91,-534.47 324.73,-759.78 111.09,-269.69 212.96,-514.11 324.52,-763.19 95.89,-214.08 259.11,-545.35 315.57,-746.08l-290.71 2.94 -526.27 1303.04 -540.95 -1302.35 -446.49 1.25c53.83,214.62 187.66,476.99 277.29,681.28 94.83,216.05 184.12,425.03 280.61,645.87 154.09,352.66 244.82,458.66 150.5,668.83 -159.67,355.82 -233.66,290.74 -598.78,326.36l-5.47 300.21z"/>
   <path class="fil0" d="M20662.34 19808.05c-9.76,-554.21 91.83,-593.89 596.55,-479.21l4.22 -300.18 -194.15 -54.95c-197.88,-17.7 -406.71,23.96 -558.43,158.97 -200.98,178.84 -239.76,325.71 -257.37,672.18l-282.51 10.19 -0.25 236.01 287.42 5.75 7.38 1577.48 398.24 -2.84 -1.85 -1577.39 448.46 -9.38 -6.5 -232.16 -441.21 -4.47z"/>
   <path class="fil0" d="M17283.36 20935.22c122.47,671.74 1136.27,718.21 975.58,-448.81 -103.27,-750.11 -1156.48,-543.5 -975.58,448.81z"/>
   <polygon class="fil0" points="19206.9,21633.79 19611.42,21626.54 19615.52,19813.52 19205.09,19816.21 "/>
   <path class="fil0" d="M8999.14 19235.52c-23.45,-134.24 -296.4,-570.44 -360.7,-719.59l-1064.18 -2c51.2,104.08 788.17,707.36 891.29,720.65 128.17,16.54 387.38,-2.03 533.59,0.94z"/>
   <path class="fil0" d="M16015.91 20709c-168.29,27.99 -476.1,76.85 -591.51,142.59 -147.09,83.79 -227.62,341.43 -77.44,484.27 138.77,131.98 418.75,56.67 531.66,-31.09 175.64,-136.48 136.79,-336.55 137.29,-595.77z"/>
   <path class="fil0" d="M19300.07 19059c-290.67,152.22 -75.47,574.15 233.19,420.94 255.99,-127.11 69.65,-579.54 -233.19,-420.94z"/>
  </g>
  <g id="_1738625716272">
   <path class="fil2" d="M7915.25 6890.8c126.64,268.91 276.73,497.81 417.47,765.41 173.39,329.71 1157.82,2134.12 1229.69,2199.11 128.73,-236.69 269.6,-485.21 417.37,-744.08 124.98,-218.96 107.62,-163.47 -13.32,-387.31l-995.16 -1831.32 -1056.05 -1.81z"/>
   <path class="fil2" d="M10238.72 8679.42c145.74,-363.61 1428.16,-2508.43 1507.89,-2750.03l-1049.02 5.1 -753.49 1365.18c-270.25,497.5 -272.88,358.48 -87.29,714.11 64.08,122.76 281.39,589.55 381.91,665.64z"/>
   <path class="fil2" d="M17116.97 8354.28c-180.9,-992.31 872.31,-1198.92 975.58,-448.81 160.69,1167.02 -853.11,1120.55 -975.58,448.81zm971.26 -873.03c-134.39,-95.45 -137.39,-214.89 -408.55,-274.25 -541.48,-118.47 -1020.34,284.92 -1008.2,962.66 13.45,752.27 592.7,1048.3 1062.27,885.51 295.59,-102.49 266.03,-244.11 370.31,-263.94l20.73 256.12 375.09 2.19 0.03 -2643.73 -411.52 42.35 -0.16 1033.09z"/>
   <path class="fil2" d="M12274.1 6531.85c43.91,196.82 607.21,1604.94 727.56,1911.28l179.71 479.3c65.28,167.45 36.97,131.39 452.59,132.95 110.4,-391.03 329.02,-879.06 480.21,-1264.12 78.47,-199.92 455.9,-1128.52 478.33,-1259.88l-284.33 1.16c-78.94,101.93 -581.32,1529.03 -737.48,1904.93 -21.58,51.95 -0.28,7.92 -24.36,54.58 -29.84,57.8 -11.98,25.99 -32.56,50.73 -76,-107.31 -490.9,-1249.15 -603.24,-1544.95 -212.52,-559.52 -69.81,-473.08 -636.43,-465.98z"/>
   <path class="fil2" d="M15849.52 8128.06c-0.5,259.22 38.35,459.29 -137.29,595.77 -112.91,87.76 -392.89,163.07 -531.66,31.09 -150.18,-142.84 -69.65,-400.48 77.44,-484.27 115.41,-65.74 423.22,-114.6 591.51,-142.59zm-729.78 -365.2c65.24,-505.82 638.4,-439.89 713.27,-89.23 109.15,511.01 -295.37,165.1 -870.68,461.28 -142.12,73.16 -268.5,203.39 -283.04,405.71 -47.1,656.13 822.64,709.58 1164.73,262.18 134.2,112.81 76.72,377.87 604.4,232.69l9.17 -178.08c-121.89,-86.32 -210.55,51.57 -209.3,-289.92 1.91,-522.78 77.41,-1003.29 -222.15,-1241.49 -256.99,-204.35 -1176.46,-286.3 -1250.27,425.69l343.87 11.17z"/>
   <path class="fil2" d="M21119.68 9853.22c395.86,63.34 595.24,-113.15 735.45,-358.38 119.72,-209.39 231.91,-534.47 324.73,-759.78 111.09,-269.69 212.96,-514.11 324.52,-763.19 95.89,-214.08 259.11,-545.35 315.57,-746.08l-290.71 2.94 -526.27 1303.04 -540.95 -1302.35 -446.49 1.25c53.83,214.62 187.66,476.99 277.29,681.28 94.83,216.05 184.12,425.03 280.61,645.87 154.09,352.66 244.82,458.66 150.5,668.83 -159.67,355.82 -233.66,290.74 -598.78,326.36l-5.47 300.21z"/>
   <path class="fil2" d="M20495.95 7227.11c-9.76,-554.21 91.83,-593.89 596.55,-479.21l4.22 -300.18 -194.15 -54.95c-197.88,-17.7 -406.71,23.96 -558.43,158.97 -200.98,178.84 -239.76,325.71 -257.37,672.18l-282.51 10.19 -0.25 236.01 287.42 5.75 7.38 1577.48 398.24 -2.84 -1.85 -1577.39 448.46 -9.38 -6.5 -232.16 -441.21 -4.47z"/>
   <path class="fil0" d="M17116.97 8354.28c122.47,671.74 1136.27,718.21 975.58,-448.81 -103.27,-750.11 -1156.48,-543.5 -975.58,448.81z"/>
   <polygon class="fil2" points="19040.51,9052.85 19445.03,9045.6 19449.13,7232.58 19038.7,7235.27 "/>
   <path class="fil2" d="M8832.75 6654.58c-23.45,-134.24 -296.4,-570.44 -360.7,-719.59l-1064.18 -2c51.2,104.08 788.17,707.36 891.29,720.65 128.17,16.54 387.38,-2.03 533.59,0.94z"/>
   <path class="fil0" d="M15849.52 8128.06c-168.29,27.99 -476.1,76.85 -591.51,142.59 -147.09,83.79 -227.62,341.43 -77.44,484.27 138.77,131.98 418.75,56.67 531.66,-31.09 175.64,-136.48 136.79,-336.55 137.29,-595.77z"/>
   <path class="fil2" d="M19133.68 6478.06c-290.67,152.22 -75.47,574.15 233.19,420.94 255.99,-127.11 69.65,-579.54 -233.19,-420.94z"/>
  </g>
 </g>
</svg>
